# xmcd
#
# Track frame offsets: 
#        150
#        12495
#        25595
#        37200
#        47935
#        60020
#        72180
#        83142
#        96020
#        108820
#        121845
#        134160
#        146617
#        157360
#        167957
#        180217
#        191247
#        203017
#        209275
#        221955
#
# Disc length: 3094 seconds
#
# Revision: 2
# Processed by: cddbd v1.5.2PL0 Copyright (c) Steve Scherf et al.
# Submitted via: ExactAudioCopy v0.95b3
#
DISCID=260c1414
DTITLE=Hank Williams - Turn Back The Years: The Essential Hank William
DTITLE=s Collection [CD2]
DYEAR=2005
DGENRE=Country
TTITLE0=Lovesick Blues
TTITLE1=Wedding Bells
TTITLE2=A Mansion On The Hill
TTITLE3=I'm Free At Last
TTITLE4=My Love For You (Has Turned To Hate)
TTITLE5=Your Cheatin' Heart
TTITLE6=First Year Blues
TTITLE7=On The Banks Of The Old Pontchartrain
TTITLE8=May You Never Be Alone
TTITLE9=A House Without Love
TTITLE10=They'll Never Take Her Love From Me
TTITLE11=I'm So Lonesome I Could Cry
TTITLE12=Let's Turn Back The Years
TTITLE13=I'm So Tired Of It All
TTITLE14=Cold, Cold Heart
TTITLE15=Weary Blues From Waiting
TTITLE16=You Win Again
TTITLE17=Fool About You
TTITLE18=Please Make Up Your Mind (as Luke The Drifter)
TTITLE19=I Can't Escape From You
EXTD=
EXTT0=
EXTT1=
EXTT2=
EXTT3=
EXTT4=
EXTT5=
EXTT6=
EXTT7=
EXTT8=
EXTT9=
EXTT10=
EXTT11=
EXTT12=
EXTT13=
EXTT14=
EXTT15=
EXTT16=
EXTT17=
EXTT18=
EXTT19=
PLAYORDER=
